<svg width="208" height="202" viewBox="0 0 208 202" fill="none" xmlns="http://www.w3.org/2000/svg">
<path fill-rule="evenodd" clip-rule="evenodd" d="M91.7219 73.024C92.0115 72.5004 92.3004 71.9769 92.5896 71.4529L92.9798 70.7459C93.814 69.2359 95.404 68.2979 97.1308 68.2979H123.462C123.501 68.2979 123.526 68.2567 123.507 68.2223C122.442 66.2942 121.377 64.3657 120.313 62.4373C119.247 60.508 118.182 58.5787 117.117 56.6498C116.277 55.1292 114.675 54.1845 112.936 54.1845H89.3774C87.6533 54.1845 86.0659 55.1213 85.2331 56.6285C83.2951 60.1382 81.3572 63.6482 79.4193 67.1583C77.4838 70.6638 75.5484 74.1693 73.613 77.6745C73.5944 77.709 73.6183 77.7501 73.6581 77.7501H86.3196C88.0425 77.7501 89.6285 76.8147 90.46 75.3074C90.7161 74.845 90.9718 74.382 91.2275 73.9189C91.3922 73.6206 91.557 73.3223 91.7219 73.024ZM103.026 90.3381C102.733 90.8699 102.439 91.4012 102.145 91.9325C101.874 92.4239 101.603 92.9153 101.332 93.4064L100.881 94.2239C100.052 95.7258 98.47 96.6586 96.7538 96.6586H63.1407L63.1383 96.658L63.1367 96.652L70.9618 82.4789L70.9658 82.4763H89.897C91.6026 82.4763 93.1726 81.5502 93.9962 80.0588L95.27 77.7501C95.4799 77.3694 95.6901 76.9886 95.9003 76.6078C96.1105 76.227 96.3207 75.8462 96.5306 75.4654C97.3621 73.9581 98.9482 73.0227 100.671 73.0227H126.157L126.161 73.0254C127.454 75.3661 128.746 77.7065 130.039 80.0468L130.076 80.1135C131.38 82.4751 132.684 84.8366 133.988 87.1984L133.988 87.2019L133.986 87.2046L133.984 87.205H107.514C105.813 87.205 104.245 88.1298 103.423 89.6185L103.026 90.3381ZM113.788 108.467C113.579 108.845 113.371 109.223 113.162 109.601C112.954 109.976 112.746 110.352 112.539 110.728C112.107 111.51 111.676 112.291 111.244 113.074C110.434 114.543 108.886 115.456 107.206 115.456H52.7621L52.7584 115.454L52.7581 115.449C54.0255 113.154 55.293 110.858 56.5604 108.562L56.7157 108.281C57.9841 105.983 59.2524 103.686 60.5208 101.389L60.5248 101.386H100.308C102.02 101.386 103.597 100.457 104.423 98.9593L106.969 94.3473C107.792 92.8573 109.359 91.9325 111.062 91.9325H136.596L136.6 91.9351C137.911 94.3082 139.221 96.6816 140.532 99.055L144.364 105.995C144.364 105.995 144.364 106.002 144.36 106.002H117.967C116.229 106.002 114.627 106.947 113.788 108.467ZM146.98 110.731C150.046 116.281 153.11 121.831 156.174 127.381C157.916 130.535 155.631 134.399 152.025 134.399L50.3075 134.391C46.7091 134.389 44.4297 130.534 46.1672 127.386C46.83 126.186 47.4928 124.985 48.1557 123.785C48.8185 122.584 49.4813 121.384 50.1441 120.183L50.1481 120.18H110.741C112.429 120.18 113.982 119.264 114.797 117.788C115.013 117.398 115.228 117.008 115.444 116.617C115.658 116.23 115.872 115.842 116.086 115.454L117.313 113.231C118.166 111.687 119.791 110.728 121.556 110.728H146.976L146.98 110.731Z" fill="#1A6B62"/>
<path d="M201.836 101.077C201.836 117.015 198.205 132.046 190.943 146.168C183.882 160.089 174.198 171.79 161.893 181.273H207.166V201.851H100.767C82.4089 201.851 65.564 197.312 50.2321 188.233C34.9002 179.154 22.6952 166.948 13.6171 151.615C4.53905 136.282 0 119.436 0 101.077C0 82.7177 4.53905 65.8715 13.6171 50.5385C22.6952 35.0037 34.9002 22.6969 50.2321 13.6182C65.7657 4.53938 82.6106 0 100.767 0C118.923 0 135.768 4.53938 151.302 13.6182C166.835 22.6969 179.141 35.0037 188.219 50.5385C197.297 66.0733 201.836 82.9194 201.836 101.077ZM20.577 101.077C20.577 115.603 24.1074 129.019 31.1681 141.326C38.4306 153.633 48.2147 163.418 60.5206 170.681C72.8265 177.742 86.2419 181.273 100.767 181.273C115.292 181.273 128.707 177.742 141.013 170.681C153.319 163.418 163.002 153.633 170.063 141.326C177.325 129.019 180.957 115.603 180.957 101.077C180.957 86.5509 177.325 73.1345 170.063 60.8277C163.002 48.521 153.319 38.837 141.013 31.7757C128.707 24.5127 115.292 20.8812 100.767 20.8812C86.2419 20.8812 72.8265 24.5127 60.5206 31.7757C48.2147 38.837 38.4306 48.521 31.1681 60.8277C24.1074 73.1345 20.577 86.5509 20.577 101.077Z" fill="#1A6B62"/>
</svg>
